<?xml version="1.0" encoding="utf-8"?>
<!-- Generator: Adobe Illustrator 26.2.0, SVG Export Plug-In . SVG Version: 6.00 Build 0)  -->
<svg version="1.1" id="Layer_1" xmlns="http://www.w3.org/2000/svg" xmlns:xlink="http://www.w3.org/1999/xlink" x="0px" y="0px"
	 viewBox="0 0 706 754" style="enable-background:new 0 0 706 754;" xml:space="preserve">
<style type="text/css">
	.st0{clip-path:url(#SVGID_00000044885244054373618320000004502104719018327691_);}
	.st1{clip-path:url(#SVGID_00000114776420411684144330000001237709746163257769_);}
	.st2{fill:#3294D1;}
	.st3{fill:#7BA7B8;}
	.st4{fill:#F08434;}
	.st5{fill:#6F7FA7;}
</style>
<g>
	<defs>
		<rect id="SVGID_1_" x="-277" y="-122" width="1258.9" height="996.8"/>
	</defs>
	<clipPath id="SVGID_00000151530721696463442970000005406073512393717150_">
		<use xlink:href="#SVGID_1_"  style="overflow:visible;"/>
	</clipPath>
	<g style="clip-path:url(#SVGID_00000151530721696463442970000005406073512393717150_);">
		<g>
			<defs>
				<rect id="SVGID_00000133528539370226904510000006021151079554376597_" x="-277" y="-122" width="1258.9" height="996.8"/>
			</defs>
			<clipPath id="SVGID_00000183233503326667460550000008713626425555152292_">
				<use xlink:href="#SVGID_00000133528539370226904510000006021151079554376597_"  style="overflow:visible;"/>
			</clipPath>
			<g style="clip-path:url(#SVGID_00000183233503326667460550000008713626425555152292_);">
				<path class="st2" d="M405.4,198.6c0-108.2-87.7-195.9-195.9-195.9S13.6,90.5,13.6,198.6s87.7,195.9,195.9,195.9
					S405.4,306.8,405.4,198.6"/>
				<path class="st3" d="M384.2,649.4c0-55.6-45.1-100.7-100.6-100.7s-100.7,45.1-100.7,100.6S228,750,283.6,750c0,0,0,0,0,0
					C339.2,750,384.2,705,384.2,649.4"/>
				<path class="st4" d="M189.3,523.1c0-51.9-42.1-94-94-94s-94,42.1-94,94s42.1,94,94,94S189.3,575,189.3,523.1L189.3,523.1"/>
				<path class="st5" d="M703.6,444.5c0-92.3-74.8-167.1-167.1-167.1s-167.1,74.8-167.1,167.1c0,92.3,74.8,167.1,167.1,167.1
					C628.8,611.6,703.6,536.8,703.6,444.5C703.6,444.5,703.6,444.5,703.6,444.5"/>
			</g>
		</g>
	</g>
</g>
</svg>
